<?xml version="1.0" encoding="UTF-8"?>
<svg version="1.1" xmlns="http://www.w3.org/2000/svg" width="96" height="96">
<path d="M0 0 C8.80288754 6.34043826 15.4186507 14.72648904 17.58203125 25.4921875 C18.92007691 37.90936834 17.85729499 48.88109459 10.39453125 59.2421875 C3.58210875 67.3274193 -4.72289951 73.55522767 -15.48876953 74.71533203 C-28.40007937 75.61089799 -39.16843729 74.04490094 -49.3515625 65.46484375 C-57.86959925 57.33325857 -62.42046403 48.68416257 -62.88867188 36.85693359 C-63.04371176 24.34263074 -60.22647828 14.71931927 -51.41796875 5.4921875 C-37.63784493 -7.66275112 -16.31305228 -10.17259803 0 0 Z " fill="#139451" transform="translate(70.41796875,13.5078125)"/>
<path d="M0 0 C10.82913257 0.28695551 20.47966227 1.68547769 29.4375 8.25 C34.471926 13.65279863 37.28106449 18.50029505 37.625 26 C37.39524801 31.97355168 35.41319766 36.17276331 32 41 C31.01 41 30.02 41 29 41 C29.03480469 40.38253906 29.06960937 39.76507813 29.10546875 39.12890625 C29.39584511 30.04427436 27.52659527 23.04392939 21.828125 15.86328125 C18.64469452 12.61863096 14.90364033 10.29013566 11 8 C12.03125 8.78375 13.0625 9.5675 14.125 10.375 C19.14257122 14.63789587 22.0875786 20.17515719 25 26 C25.12240135 27.76770327 25.17551153 29.54060462 25.1875 31.3125 C25.20167969 32.25738281 25.21585938 33.20226563 25.23046875 34.17578125 C24.98824335 37.14406882 24.24026607 39.30867165 23 42 C18.01295144 42.35480978 14.17080309 42.58540154 9.625 40.3125 C4.17256458 35.50916404 0.34957332 30.36771459 -0.24047852 22.99536133 C-0.29477374 19.51314319 -0.26158112 16.04431253 -0.1875 12.5625 C-0.16719727 10.74975586 -0.16719727 10.74975586 -0.14648438 8.90039062 C-0.11129946 5.93312918 -0.06206696 2.96680063 0 0 Z " fill="#F8FBFA" transform="translate(31,27)"/>
<path d="M0 0 C8.73151612 3.19183718 14.31429548 8.5854138 18.90625 16.5703125 C21.06218694 21.35957241 21.10203377 25.79627791 21 31 C20.01 30.01 19.02 29.02 18 28 C17.34 28.33 16.68 28.66 16 29 C15.98582031 28.38253906 15.97164062 27.76507813 15.95703125 27.12890625 C15.42837887 17.74175445 11.99367307 11.29430576 5 5 C3.33333333 3.33333333 1.66666667 1.66666667 0 0 Z " fill="#259058" transform="translate(40,34)"/>
<path d="M0 0 C3.83663072 1.34929464 6.65172569 3.07751025 9.8125 5.625 C10.99779297 6.57246094 10.99779297 6.57246094 12.20703125 7.5390625 C12.79871094 8.02117188 13.39039063 8.50328125 14 9 C13.67 9.66 13.34 10.32 13 11 C9.16202456 9.43638038 6.8332373 6.97489917 4 4 C3.236875 3.236875 2.47375 2.47375 1.6875 1.6875 C1.130625 1.130625 0.57375 0.57375 0 0 Z " fill="#47A272" transform="translate(40,34)"/>
</svg>
